<?xml version="1.0" encoding="utf-8"?>
<!-- Generator: Adobe Illustrator 20.0.0, SVG Export Plug-In . SVG Version: 6.00 Build 0)  -->
<svg version="1.1" id="Layer_1" xmlns="http://www.w3.org/2000/svg" xmlns:xlink="http://www.w3.org/1999/xlink" x="0px" y="0px"
	 width="673.4px" height="70px" viewBox="0 0 673.4 70" style="enable-background:new 0 0 673.4 70;" xml:space="preserve">
<style type="text/css">
	.st0{fill:#891920;}
</style>
<polygon class="st0" points="36.8,0 45.5,26.7 73.6,26.7 50.9,43.3 59.6,70 36.8,53.5 14.1,70 22.7,43.3 0,26.7 28.1,26.7 "/>
<polygon class="st0" points="186.7,0 195.4,26.7 223.6,26.7 200.8,43.3 209.5,70 186.7,53.5 164,70 172.7,43.3 149.9,26.7 
	178.1,26.7 "/>
<polygon class="st0" points="336.7,0 345.4,26.7 373.5,26.7 350.7,43.3 359.4,70 336.7,53.5 313.9,70 322.6,43.3 299.9,26.7 
	328,26.7 "/>
<polygon class="st0" points="486.6,0 495.3,26.7 523.4,26.7 500.7,43.3 509.4,70 486.6,53.5 463.9,70 472.6,43.3 449.8,26.7 
	477.9,26.7 "/>
<polygon class="st0" points="636.6,0 645.3,26.7 673.4,26.7 650.6,43.3 659.3,70 636.6,53.5 613.8,70 622.5,43.3 599.8,26.7 
	627.9,26.7 "/>
</svg>
