<?xml version="1.0" encoding="utf-8"?>
<!-- Generator: Adobe Illustrator 20.0.0, SVG Export Plug-In . SVG Version: 6.00 Build 0)  -->
<svg version="1.1" id="Layer_1" xmlns="http://www.w3.org/2000/svg" xmlns:xlink="http://www.w3.org/1999/xlink" x="0px" y="0px"
	 width="658.355px" height="60.922px" viewBox="0 0 658.355 60.922" enable-background="new 0 0 658.355 60.922"
	 xml:space="preserve">
<g>
	<path fill="#FFFFFF" d="M41.898,8.003v8.72h-13.71v30.052H14.204V16.723H0.438v-8.72H41.898z"/>
	<path fill="#FFFFFF" d="M45.514,8.058h28.462c3.4,0.055,7.568,0.11,10.803,2.468c2.797,2.139,4.552,5.923,4.552,9.816
		c0,2.742-0.877,5.429-2.468,7.349c-2.193,2.632-4.826,3.181-6.471,3.62l9.707,15.465H74.744l-7.952-14.094h-7.403v14.094H45.514
		V8.058z M59.389,23.907h10.419c2.139,0,5.648-0.055,5.648-3.51c0-0.877-0.274-1.81-0.987-2.468
		c-1.097-0.987-2.522-1.097-3.564-1.097H59.389V23.907z"/>
	<path fill="#FFFFFF" d="M95.908,8.058h13.82v21.991c0,2.413,0.219,4.167,1.097,5.648c1.755,3.016,5.265,3.839,8.062,3.839
		c3.62,0,5.703-1.261,6.636-2.139c2.358-2.194,2.413-5.704,2.413-7.568V8.058h13.819v20.291c0,4.552-0.109,9.323-2.248,12.613
		c-4.223,6.581-14.423,7.184-20.565,7.184c-8.61,0-13.491-1.207-16.397-2.961c-6.033-2.961-6.636-9.104-6.636-12.229V8.058z"/>
	<path fill="#FFFFFF" d="M150.688,8.058h18.371l9.762,25.281l9.762-25.281h18.316v38.717h-13.71V21.987l-9.158,24.788h-10.694
		l-9.049-24.678v24.678h-13.6V8.058z"/>
	<path fill="#FFFFFF" d="M215.888,8.003h26.488c4.936,0.11,9.433,0.219,12.503,2.961c1.426,1.316,3.565,4.113,3.565,9.433
		c0,2.632-0.604,5.594-2.578,8.006c-3.564,4.387-9.378,4.716-15.685,4.716h-10.474v13.655h-13.82V8.003z M229.708,24.4h8.994
		c2.358,0,5.868-0.055,5.868-3.784c0-1.316-0.604-2.468-1.426-3.071c-0.987-0.713-2.248-0.768-3.345-0.768h-10.09V24.4z"/>
	<path fill="#FFFFFF" d="M320.682,8.003v8.72h-13.71v30.052h-13.984V16.723h-13.765v-8.72H320.682z"/>
	<path fill="#FFFFFF" d="M324.298,8.058h13.984v14.149h16.891V8.058h14.039v38.717h-14.039V31.913h-16.891v14.862h-13.984V8.058z"/>
	<path fill="#FFFFFF" d="M418.893,8.058v8.72h-26.927v6.307h24.897v8.774h-24.952V38h27.529v8.774h-41.35V8.058H418.893z"/>
	<path fill="#FFFFFF" d="M444.388,8.058h21.99c4.004,0,15.246-0.219,20.62,9.159c0.822,1.426,2.688,4.826,2.688,10.584
		c0,3.016-0.549,6.087-1.755,8.829c-0.987,2.249-2.797,5.375-7.239,7.678c-4.168,2.193-8.007,2.468-11.735,2.468h-24.568V8.058z
		 M457.933,38h6.087c4.717,0,7.404-0.877,8.994-2.303c1.864-1.645,3.126-4.881,3.126-8.171c0-3.674-1.48-6.471-3.455-8.062
		c-2.413-1.919-5.703-2.193-8.28-2.193h-6.472V38z"/>
	<path fill="#FFFFFF" d="M495.823,8.058h13.819v21.991c0,2.413,0.22,4.167,1.097,5.648c1.755,3.016,5.265,3.839,8.062,3.839
		c3.619,0,5.703-1.261,6.636-2.139c2.358-2.194,2.413-5.704,2.413-7.568V8.058h13.819v20.291c0,4.552-0.109,9.323-2.248,12.613
		c-4.223,6.581-14.423,7.184-20.565,7.184c-8.609,0-13.49-1.207-16.397-2.961c-6.032-2.961-6.635-9.104-6.635-12.229V8.058z"/>
	<path fill="#FFFFFF" d="M550.604,8.058h18.372l9.762,25.281l9.761-25.281h18.317v38.717h-13.711V21.987l-9.158,24.788h-10.693
		l-9.049-24.678v24.678h-13.601V8.058z"/>
	<path fill="#FFFFFF" d="M615.804,8.003h26.487c4.936,0.11,9.433,0.219,12.504,2.961c1.426,1.316,3.564,4.113,3.564,9.433
		c0,2.632-0.604,5.594-2.578,8.006c-3.564,4.387-9.377,4.716-15.684,4.716h-10.475v13.655h-13.819V8.003z M629.623,24.4h8.994
		c2.357,0,5.867-0.055,5.867-3.784c0-1.316-0.603-2.468-1.426-3.071c-0.987-0.713-2.248-0.768-3.345-0.768h-10.091V24.4z"/>
</g>
<g>
</g>
<g>
</g>
<g>
</g>
<g>
</g>
<g>
</g>
<g>
</g>
</svg>
