<svg id="Layer_1" xmlns="http://www.w3.org/2000/svg" width="673.4" height="70" viewBox="0 0 673.4 70"><style>.st0{fill:#891920}</style><path class="st0" d="M36.8 0l8.7 26.7h28.1L50.9 43.3 59.6 70 36.8 53.5 14.1 70l8.6-26.7L0 26.7h28.1zM186.7 0l8.7 26.7h28.2l-22.8 16.6 8.7 26.7-22.8-16.5L164 70l8.7-26.7-22.8-16.6h28.2zM336.7 0l8.7 26.7h28.1l-22.8 16.6 8.7 26.7-22.7-16.5L313.9 70l8.7-26.7-22.7-16.6H328zM486.6 0l8.7 26.7h28.1l-22.7 16.6 8.7 26.7-22.8-16.5L463.9 70l8.7-26.7-22.8-16.6h28.1zM636.6 0l8.7 26.7h28.1l-22.8 16.6 8.7 26.7-22.7-16.5L613.8 70l8.7-26.7-22.7-16.6h28.1z"/></svg>