<svg xmlns="http://www.w3.org/2000/svg" width="658.355" height="60.922" viewBox="0 0 658.355 60.922"><g fill="#27397F"><path d="M41.898 8.003v8.72h-13.71v30.052H14.204V16.723H.438v-8.72h41.46zM45.514 8.058h28.462c3.4.055 7.568.11 10.803 2.468 2.797 2.139 4.552 5.923 4.552 9.816 0 2.742-.877 5.429-2.468 7.349-2.193 2.632-4.826 3.181-6.471 3.62l9.707 15.465H74.744l-7.952-14.094h-7.403v14.094H45.514V8.058zm13.875 15.849h10.419c2.139 0 5.648-.055 5.648-3.51 0-.877-.274-1.81-.987-2.468-1.097-.987-2.522-1.097-3.564-1.097H59.389v7.075zM95.908 8.058h13.82v21.991c0 2.413.219 4.167 1.097 5.648 1.755 3.016 5.265 3.839 8.062 3.839 3.62 0 5.703-1.261 6.636-2.139 2.358-2.194 2.413-5.704 2.413-7.568V8.058h13.819v20.291c0 4.552-.109 9.323-2.248 12.613-4.223 6.581-14.423 7.184-20.565 7.184-8.61 0-13.491-1.207-16.397-2.961-6.033-2.961-6.636-9.104-6.636-12.229V8.058zM150.688 8.058h18.371l9.762 25.281 9.762-25.281h18.316v38.717h-13.71V21.987l-9.158 24.788h-10.694l-9.049-24.678v24.678h-13.6V8.058zM215.888 8.003h26.488c4.936.11 9.433.219 12.503 2.961 1.426 1.316 3.565 4.113 3.565 9.433 0 2.632-.604 5.594-2.578 8.006-3.564 4.387-9.378 4.716-15.685 4.716h-10.474v13.655h-13.82V8.003zm13.82 16.397h8.994c2.358 0 5.868-.055 5.868-3.784 0-1.316-.604-2.468-1.426-3.071-.987-.713-2.248-.768-3.345-.768h-10.09V24.4zM320.682 8.003v8.72h-13.71v30.052h-13.984V16.723h-13.765v-8.72h41.459zM324.298 8.058h13.984v14.149h16.891V8.058h14.039v38.717h-14.039V31.913h-16.891v14.862h-13.984V8.058zM418.893 8.058v8.72h-26.927v6.307h24.897v8.774h-24.952V38h27.529v8.774h-41.35V8.058h40.803zM444.388 8.058h21.99c4.004 0 15.246-.219 20.62 9.159.822 1.426 2.688 4.826 2.688 10.584 0 3.016-.549 6.087-1.755 8.829-.987 2.249-2.797 5.375-7.239 7.678-4.168 2.193-8.007 2.468-11.735 2.468h-24.568V8.058zM457.933 38h6.087c4.717 0 7.404-.877 8.994-2.303 1.864-1.645 3.126-4.881 3.126-8.171 0-3.674-1.48-6.471-3.455-8.062-2.413-1.919-5.703-2.193-8.28-2.193h-6.472V38zM495.823 8.058h13.819v21.991c0 2.413.22 4.167 1.097 5.648 1.755 3.016 5.265 3.839 8.062 3.839 3.619 0 5.703-1.261 6.636-2.139 2.358-2.194 2.413-5.704 2.413-7.568V8.058h13.819v20.291c0 4.552-.109 9.323-2.248 12.613-4.223 6.581-14.423 7.184-20.565 7.184-8.609 0-13.49-1.207-16.397-2.961-6.032-2.961-6.635-9.104-6.635-12.229V8.058zM550.604 8.058h18.372l9.762 25.281 9.761-25.281h18.317v38.717h-13.711V21.987l-9.158 24.788h-10.693l-9.049-24.678v24.678h-13.601V8.058zM615.804 8.003h26.487c4.936.11 9.433.219 12.504 2.961 1.426 1.316 3.564 4.113 3.564 9.433 0 2.632-.604 5.594-2.578 8.006-3.564 4.387-9.377 4.716-15.684 4.716h-10.475v13.655h-13.819V8.003zM629.623 24.4h8.994c2.357 0 5.867-.055 5.867-3.784 0-1.316-.603-2.468-1.426-3.071-.987-.713-2.248-.768-3.345-.768h-10.091V24.4z"/></g></svg>