<?xml version="1.0" standalone="no"?>
<!DOCTYPE svg PUBLIC "-//W3C//DTD SVG 20010904//EN"
 "http://www.w3.org/TR/2001/REC-SVG-20010904/DTD/svg10.dtd">
<svg version="1.0" xmlns="http://www.w3.org/2000/svg"
 width="16.000000pt" height="16.000000pt" viewBox="0 0 16.000000 16.000000"
 preserveAspectRatio="xMidYMid meet">
<metadata>
Created by potrace 1.11, written by Peter Selinger 2001-2013
</metadata>
<g transform="translate(0.000000,16.000000) scale(0.006154,-0.006154)"
fill="#000000" stroke="none">
<path d="M0 1300 l0 -1300 1300 0 1300 0 0 1300 0 1300 -1300 0 -1300 0 0
-1300z m1425 1200 c573 -65 1009 -500 1076 -1073 19 -168 2 -334 -52 -499 -60
-186 -159 -345 -302 -487 -163 -161 -335 -259 -564 -318 -98 -25 -124 -27
-283 -27 -159 0 -185 2 -283 27 -291 75 -529 237 -699 474 -495 689 -139 1658
688 1873 142 36 275 46 419 30z"/>
<path d="M1077 2370 c-103 -22 -229 -68 -221 -81 9 -15 96 -56 156 -74 31 -9
89 -17 129 -18 63 -2 74 1 77 16 2 9 -2 19 -10 21 -7 2 -41 12 -76 22 -35 9
-65 21 -68 26 -3 5 14 17 38 28 35 16 65 20 163 20 140 0 185 -15 231 -76 24
-31 29 -47 29 -94 0 -70 -31 -117 -102 -151 -43 -21 -62 -24 -173 -24 -129 1
-183 12 -274 57 -54 27 -142 113 -174 168 -14 25 -27 46 -28 48 -6 9 -158
-102 -223 -163 -213 -202 -335 -466 -343 -745 l-3 -95 195 -2 195 -2 5 -401 5
-402 55 -39 55 -39 3 545 2 545 560 0 560 0 0 -555 c0 -305 3 -555 6 -555 3 0
35 19 70 42 l64 43 0 407 0 408 208 2 207 3 -3 95 c-13 424 -302 823 -704 974
-180 67 -424 85 -611 46z m607 -329 c67 -42 100 -129 73 -193 -8 -19 -31 -50
-52 -70 -21 -20 -35 -40 -31 -47 13 -20 52 -11 81 19 36 37 54 38 87 3 39 -42
48 -66 48 -127 0 -93 25 -86 -294 -86 l-281 1 43 21 c34 16 73 54 60 59 -14 5
-291 3 -294 -2 -7 -12 49 -59 80 -68 20 -6 -70 -10 -261 -10 -332 -1 -313 -6
-313 85 0 52 36 126 71 144 20 11 59 5 59 -10 0 -17 97 -70 128 -70 44 0 45
34 2 49 -115 40 -158 151 -98 249 41 67 54 68 159 19 133 -62 176 -72 309 -72
165 0 229 27 307 128 15 19 65 10 117 -22z"/>
<path d="M1092 1834 c-45 -31 -16 -104 43 -104 34 0 65 28 65 59 0 53 -60 79
-108 45z"/>
<path d="M1382 1834 c-28 -19 -29 -57 -2 -84 24 -24 57 -26 87 -5 30 21 34 51
11 80 -23 29 -62 33 -96 9z"/>
<path d="M922 763 l3 -497 55 -18 c30 -9 65 -17 78 -17 l22 -1 -2 513 -3 512
-78 3 -77 3 2 -498z"/>
<path d="M1212 733 l3 -528 78 -3 77 -3 0 531 0 530 -80 0 -80 0 2 -527z"/>
<path d="M1510 1253 c0 -4 0 -237 0 -518 l0 -510 27 3 c16 2 51 11 78 20 l50
17 0 495 0 495 -77 3 c-43 2 -78 -1 -78 -5z"/>
</g>
</svg>
